<?xml version="1.0" standalone="no"?>
<!DOCTYPE svg PUBLIC "-//W3C//DTD SVG 20010904//EN"
 "http://www.w3.org/TR/2001/REC-SVG-20010904/DTD/svg10.dtd">
<svg version="1.0" xmlns="http://www.w3.org/2000/svg"
 width="572.000000pt" height="534.000000pt" viewBox="0 0 572.000000 534.000000"
 preserveAspectRatio="xMidYMid meet">

<g transform="translate(0.000000,534.000000) scale(0.100000,-0.100000)"
fill="#000000" stroke="none">
<path d="M2605 4893 c-434 -4 -1070 -23 -1161 -34 -215 -27 -417 -119 -565
-258 -50 -46 -109 -113 -132 -150 -103 -159 -196 -358 -215 -461 -6 -30 -17
-74 -26 -96 -12 -36 -15 -228 -21 -1315 l-7 -1274 37 -120 c84 -276 189 -432
390 -581 111 -82 202 -127 363 -181 124 -42 148 -47 252 -51 63 -2 676 1 1361
7 l1247 11 103 36 c367 128 574 338 720 729 l34 90 3 704 c2 387 1 710 -2 716
-3 9 -17 10 -50 4 -43 -8 -265 -12 -388 -6 -31 1 -60 -2 -64 -6 -5 -4 -9 -124
-10 -265 -4 -508 -75 -822 -227 -1008 l-28 -34 -392 0 -392 1 45 40 c25 21
103 69 175 106 114 59 141 78 231 165 116 112 252 295 326 441 27 50 68 153
92 227 47 142 92 328 82 338 -4 3 -33 8 -66 10 l-59 4 -16 -38 c-9 -22 -39
-104 -66 -183 -101 -290 -258 -544 -433 -699 -227 -201 -494 -356 -690 -402
-178 -41 -264 -50 -491 -50 -343 0 -502 33 -746 155 -206 102 -360 220 -510
387 -226 253 -388 583 -444 906 -9 48 -15 146 -15 226 0 568 213 1024 640
1370 217 177 506 308 775 353 149 24 498 24 632 0 112 -20 351 -104 452 -158
190 -102 386 -257 516 -410 109 -128 151 -193 248 -382 78 -153 92 -197 106
-330 l7 -79 -78 4 c-89 4 -98 10 -98 75 -1 184 -170 491 -404 731 -178 183
-501 353 -778 408 -126 24 -409 30 -531 10 -110 -18 -307 -79 -437 -135 -90
-39 -294 -172 -371 -243 -258 -236 -428 -533 -500 -874 -31 -145 -34 -450 -6
-584 23 -108 86 -297 131 -395 74 -161 238 -382 373 -504 314 -284 713 -427
1138 -408 146 7 235 26 400 85 145 52 206 80 290 132 324 201 599 556 699 904
36 122 36 123 -21 128 -83 7 -83 7 -128 -122 -125 -357 -428 -703 -738 -844
-103 -47 -254 -93 -357 -107 -138 -20 -387 -15 -506 10 -122 25 -281 79 -378
128 -361 181 -660 577 -747 988 -29 134 -35 332 -16 496 14 114 24 157 62 260
58 155 118 266 213 391 139 184 285 301 517 413 213 104 376 139 630 138 204
-1 339 -26 505 -92 199 -80 338 -171 477 -312 161 -164 211 -243 320 -502 82
-197 90 -177 -73 -178 -77 0 -216 -4 -309 -8 -167 -8 -173 -9 -249 -45 -118
-54 -281 -155 -330 -203 l-43 -42 -17 42 c-23 61 -21 104 7 130 13 12 62 67
109 122 47 55 100 114 118 130 42 39 206 226 253 288 44 57 50 114 17 147 -45
45 -99 13 -195 -115 -29 -38 -145 -164 -257 -279 -163 -168 -208 -208 -222
-203 -18 7 -19 19 -14 197 3 105 2 207 -2 227 -10 43 -40 70 -89 79 -30 6 -38
3 -59 -21 -24 -28 -24 -29 -21 -237 l3 -209 -53 -31 c-113 -65 -171 -157 -171
-267 1 -119 65 -222 173 -276 110 -55 195 -48 294 24 45 33 96 111 114 175
l10 38 22 -20 c12 -12 40 -28 62 -37 22 -10 112 -51 200 -93 l160 -76 720 -3
c416 -2 773 1 845 7 145 12 142 10 211 145 38 74 40 84 34 135 -9 74 -35 131
-90 193 -25 29 -43 58 -40 65 3 7 0 138 -5 290 -11 305 -21 370 -86 560 -47
139 -103 249 -157 310 -24 27 -50 58 -58 68 -61 83 -296 226 -503 307 l-81 32
-635 0 c-349 1 -743 0 -875 -2z m1771 -572 c37 -22 70 -97 60 -135 -9 -38 -61
-83 -104 -91 -72 -12 -131 33 -139 107 -4 37 -1 49 23 77 29 35 74 60 109 61
11 0 34 -9 51 -19z m494 -846 c28 -30 54 -114 37 -121 -7 -2 -136 -3 -287 -2
l-275 3 -3 29 c-5 39 5 73 26 94 16 16 41 18 250 19 227 0 231 0 252 -22z m18
-403 l3 -153 -53 3 -53 3 -7 50 c-3 28 -7 91 -7 142 -1 105 5 115 74 110 l40
-2 3 -153z m-260 81 l-3 -68 -532 0 -533 0 0 57 c0 46 3 58 18 61 9 2 231 5
492 6 261 1 476 4 479 6 2 3 22 5 43 5 l39 0 -3 -67z m-1969 34 c9 -8 12 -29
9 -74 l-4 -63 26 25 c37 35 50 32 50 -13 0 -74 -74 -152 -144 -152 -42 0 -89
24 -120 61 -25 30 -28 39 -24 91 4 50 9 63 38 93 50 52 126 66 169 32z m725
-28 c3 -17 6 -76 6 -130 0 -112 1 -110 -81 -86 -51 16 -239 100 -239 107 0 7
197 107 245 124 57 21 62 20 69 -15z m-704 -1973 c245 0 750 2 1124 4 776 4
697 15 700 -98 l1 -67 -620 -7 c-623 -7 -1849 -2 -2522 10 -346 7 -363 8 -390
28 -45 34 -40 115 9 133 13 5 300 6 638 2 338 -3 815 -6 1060 -5z m-1256 -318
c3 -13 6 -123 6 -245 l0 -223 -22 1 c-13 0 -52 8 -88 18 l-65 17 -3 221 -2
222 22 4 c13 2 51 5 84 6 56 1 62 -1 68 -21z m2897 12 l26 0 6 -167 c6 -165 6
-168 -16 -185 -26 -20 -136 -52 -145 -43 -4 4 -9 95 -10 203 l-4 197 59 -2
c32 -1 70 -2 84 -3z"/>
<path d="M2520 4263 c-20 -26 -22 -36 -17 -121 6 -125 34 -165 103 -148 43 11
64 61 64 149 0 115 -21 147 -95 147 -25 0 -39 -7 -55 -27z"/>
<path d="M1908 4110 c-40 -40 -35 -76 26 -169 62 -97 103 -115 151 -66 47 46
23 144 -55 226 -46 49 -79 51 -122 9z"/>
<path d="M3164 4120 c-47 -19 -114 -126 -114 -183 0 -41 37 -79 75 -79 29 0
71 35 116 96 46 62 38 134 -18 164 -25 14 -30 14 -59 2z"/>
<path d="M1492 3697 c-38 -41 -30 -83 27 -138 56 -53 117 -89 155 -89 30 0 66
42 66 77 0 36 -23 74 -66 109 -85 68 -144 81 -182 41z"/>
<path d="M3516 3665 c-63 -52 -76 -71 -76 -114 0 -31 28 -70 53 -72 70 -7 180
72 193 138 5 27 1 37 -24 63 -44 44 -78 40 -146 -15z"/>
<path d="M1343 3121 c-18 -5 -39 -14 -47 -20 -23 -20 -29 -66 -12 -99 23 -44
61 -55 171 -50 82 3 98 7 119 28 14 13 28 31 31 41 8 23 -19 75 -47 90 -27 14
-172 21 -215 10z"/>
<path d="M1615 2573 c-144 -75 -186 -137 -132 -197 40 -44 88 -39 166 20 92
69 111 124 61 174 -24 24 -54 25 -95 3z"/>
<path d="M3465 2565 c-42 -41 -34 -77 31 -145 67 -70 102 -88 143 -71 42 18
63 77 45 126 -10 25 -144 115 -171 115 -13 0 -35 -11 -48 -25z"/>
<path d="M3085 2198 c-53 -29 -57 -61 -15 -144 46 -91 85 -134 124 -134 73 0
97 79 51 169 -50 100 -107 138 -160 109z"/>
<path d="M1982 2184 c-32 -22 -92 -146 -92 -189 0 -42 36 -85 73 -85 13 0 37
14 54 33 46 47 103 147 103 179 0 63 -84 100 -138 62z"/>
<path d="M2553 2059 c-42 -15 -55 -61 -51 -180 3 -104 4 -109 32 -138 33 -34
60 -39 92 -16 36 25 46 66 42 178 -2 85 -7 109 -21 125 -25 27 -67 41 -94 31z"/>
</g>
</svg>
